# xmcd
#
# Track frame offsets:
# 150
# 18868
# 33078
# 47748
# 60345
# 78053
# 98928
# 118863
# 132133
# 147760
# 160180
# 177600
#
# Disc length: 2446 seconds
#
#
# Revision: 0
# Processed by: cddbd v1.5.1PL2 Copyright (c) Steve Scherf et al.
# Submitted via: FreeRIP 2.945 
#
DISCID=91098c0c
DTITLE=Chris Regez - Home Sweet Home
DYEAR=1900
DGENRE=Country
TTITLE0=Sweet home Alabama
TTITLE1=We fit like glove
TTITLE2=Shoulders
TTITLE3=5 years running
TTITLE4=Just can't wait
TTITLE5=Folsom Prison Blues
TTITLE6=Honky tonk man
TTITLE7=She hurt me right
TTITLE8=Mentig Morge Club
TTITLE9=Drive all night
TTITLE10=Slam that door
TTITLE11=Shoulders (Reprise)
EXTD=Rip by Bandido
EXTT0=
EXTT1=
EXTT2=
EXTT3=
EXTT4=
EXTT5=
EXTT6=
EXTT7=
EXTT8=
EXTT9=
EXTT10=
EXTT11=
PLAYORDER=
